<?xml version="1.0" encoding="utf-8"?>
<!-- Generator: Adobe Illustrator 16.0.0, SVG Export Plug-In . SVG Version: 6.00 Build 0)  -->
<!DOCTYPE svg PUBLIC "-//W3C//DTD SVG 1.1//EN" "http://www.w3.org/Graphics/SVG/1.1/DTD/svg11.dtd">
<svg version="1.1" id="Layer_1" xmlns="http://www.w3.org/2000/svg" xmlns:xlink="http://www.w3.org/1999/xlink" x="0px" y="0px"
	 width="160.546px" height="270.963px" viewBox="0 0 160.546 270.963" enable-background="new 0 0 160.546 270.963"
	 xml:space="preserve">
<g>
	<path fill-rule="evenodd" clip-rule="evenodd" fill="#A67C52" d="M53.646-204.239c-1.741,5.586-3.099,10.515-4.81,15.318
		c-3.132,8.792-8.003,15.902-17.113,19.911c-8.915,3.922-12.205,12.678-14.626,21.222c-1.387,4.897,0.985,9.711,5.655,12.372
		c10.151,5.783,9.115,15.367,2.241,22.176c-2.423,2.399-5.164,4.513-7.93,6.523c-3.436,2.497-6.446,5.235-5.729,9.925
		c0.759,4.957,4.085,7.783,8.588,9.63c1.389,0.568,2.398,2.064,3.581,3.136c-1.768,0.382-3.781,1.501-5.262,1.011
		c-5.995-1.982-10.239-6.032-11.425-12.443c-1.196-6.467,2.02-10.992,7.016-14.719c3.229-2.409,6.572-4.878,9.113-7.942
		c4.888-5.896,2.475-11.296-5.061-12.178c-7.755-0.91-14.477-7.28-15.89-15.056c-1.595-8.79,2.086-17.167,10.05-20.632
		c4.072-1.771,4.306-4.11,3.672-7.625c-2.073-11.494-2.327-23.006,0.807-34.341c5.281-19.093,18.039-31.402,36.229-38.126
		c17.433-6.444,35.428-7.341,53.396-2.651c31.947,8.336,45.372,33.216,42.465,63.57c-0.415,4.342-1.179,8.65-1.826,12.968
		c-0.389,2.58,0.161,4.209,2.97,5.353c8.564,3.487,13.114,10.962,12.333,19.443c-0.764,8.291-6.565,14.786-15.159,16.97
		c-0.15,0.039-0.325,0.015-0.46,0.079c-6.542,3.095-4.498,10.617-7.754,15.48c-0.504,0.752,1.531,3.484,2.748,5.021
		c0.938,1.181,2.414,1.947,3.686,2.85c5.296,3.751,7.05,8.099,5.491,13.68c-1.629,5.829-7.606,11.237-13.02,11.239
		c-1.442,0.001-2.884-1.543-4.326-2.376c1.178-0.894,2.252-2.333,3.554-2.583c4.698-0.891,7.463-3.652,8.752-8.051
		c1.292-4.405-1.938-6.193-4.682-8.668c-3.641-3.282-7.295-6.91-9.717-11.097c-3.601-6.231-1.382-12.275,4.746-16.006
		c11.75-7.153,13.949-25.359,3.556-34.453c-3.209-2.807-8.27-4.164-12.681-4.796c-10.477-1.5-21.1-1.938-31.612-3.226
		c-18.741-2.293-32.677-11.498-40.45-29.142C54.581-202.881,54.284-203.237,53.646-204.239z"/>
	<path fill-rule="evenodd" clip-rule="evenodd" fill="#A67C52" d="M127.078-246.412c-29.424-14.817-58.74-13.706-88.125,0.248
		c-6.498-10.676-0.506-32.634,12.307-44.454c16.163-14.911,41.675-16.222,59.523-3.057
		C126.019-282.435,133.57-260.435,127.078-246.412z"/>
</g>
<g>
	<path fill-rule="evenodd" clip-rule="evenodd" fill="#F2D5C9" d="M128.969,196.369c-9.12,13.855-20.226,25.182-34.653,33.119
		c-8.802,4.843-17.433,4.937-26.245,0.065c-16.309-9.012-28.558-22.016-37.566-38.154c-0.7-1.252-0.496-3.611,0.223-4.955
		c5.386-10.056,3.732-17.84-5.796-24.17c-3.843-2.554-4.813-5.885-4.169-10.047c1.061-6.87,4.98-12.14,11.064-14.746
		c11.063-4.74,16.689-13.532,20.417-24.188c0.203-0.578,0.537-1.11,0.812-1.67c0.342,0.076,0.719,0.045,0.829,0.201
		c10.908,15.521,26.885,20.952,44.797,22.494c8.695,0.748,17.405,1.326,26.097,2.108c6.619,0.596,10.395,4.2,12.042,11.166
		c1.695,7.162-0.407,14.615-4.898,17.369c-12.242,7.512-13.998,17.521-5.051,28.818
		C127.449,194.508,128.042,195.226,128.969,196.369z"/>
</g>
<g>
	<path fill-rule="evenodd" clip-rule="evenodd" fill="#F15A24" d="M80.83,554.105c1.085-2.55,1.985-4.83,3.013-7.051
		c6.562-14.186,16.887-20.011,32.307-18.273c14.126,1.59,23.945,4.339,31.195,8.732c-26.028,25.452-94.479,32.26-133.797,0.206
		c7.999-4.865,16.61-7.271,25.545-8.327C62.986,526.574,70.596,531.135,80.83,554.105z"/>
</g>
<path fill-rule="evenodd" clip-rule="evenodd" fill="#A67C52" d="M-186.525-252.727c-2.398,5.984-4.527,11.564-6.856,17.061
	c-7.858,18.539-13.979,22.234-34.233,20.839c-6.983-27.743,0.12-57.71,23.575-74.071c18.931-13.205,40.281-16.752,62.797-14.936
	c12.076,0.975,23.559,4.15,34.084,10.375c17.857,10.561,27.363,26.556,29.046,46.861c0.749,9.027-0.514,18.248-1.267,27.348
	c-0.125,1.52-2.242,4.041-3.559,4.119c-20.614,1.23-41.285,2.697-61.733-1.648c-18.516-3.935-31.903-14.399-39.476-31.954
	c-0.395-0.915-0.83-1.813-1.285-2.7C-185.577-251.717-185.847-251.936-186.525-252.727z"/>
<g>
	<path fill-rule="evenodd" clip-rule="evenodd" fill="#F2D5C9" d="M-218.312,138.155c-13.686-0.044-21.896-5.759-24.339-16.628
		c-2.784-12.383,5.172-22.726,17.74-23.161c3.659-0.127,7.331-0.336,10.96-0.798c10.436-1.33,18.491-6.291,23.233-15.933
		c2.259-4.593,4.319-9.282,6.742-14.517c8.218,12.417,18.896,21.095,32.836,24.49c10.118,2.465,20.588,4.143,30.977,4.664
		c12.439,0.623,25.021,0.314,37.426-0.844c10.985-1.027,18.988,7.82,20.936,15.556c2.412,9.585-2.245,19.917-11.129,24.462
		c-0.592,0.303-1.199,0.805-1.807,0.812c-7.024,0.104-8.293,5.045-9.936,10.583c-5.105,17.228-13.701,32.519-27.506,44.377
		c-25.345,21.772-58.1,19.671-81.336-5.026c-11.926-12.678-19.29-27.778-23.725-44.45
		C-217.537,140.627-217.9,139.528-218.312,138.155z"/>
</g>
<g>
	<path fill-rule="evenodd" clip-rule="evenodd" fill="#F15A24" d="M-114.054,560.364c0-21.427,0-41.858,0-63.022
		c22.256,4.98,44.169,9.885,67.027,15C-63.869,536.735-87.746,549.65-114.054,560.364z"/>
	<path fill-rule="evenodd" clip-rule="evenodd" fill="#F15A24" d="M-252.454,512.402c22.463-5.068,43.499-9.818,64.541-14.543
		c0.626-0.141,1.312-0.018,2.304-0.018c0,20.562,0,41.1,0,62.412C-211.643,549.646-234.989,536.209-252.454,512.402z"/>
	<path fill-rule="evenodd" clip-rule="evenodd" fill="#F15A24" d="M-177.787,520.808c0.173-3.487,0.007-7.032,0.596-10.448
		c0.994-5.762,4.965-7.585,10.064-4.983c18.967,9.677,16.628,9.921,36.027-0.058c4.787-2.463,8.941-1.115,9.561,4.25
		c0.848,7.34,0.903,14.935,0.008,22.263c-0.703,5.752-5.199,7.593-9.888,4.247c-12.088-8.624-23.6-8.441-35.645,0.074
		c-4.636,3.277-8.94,0.859-10.162-4.88c-0.377-1.772-0.356-3.638-0.43-5.464c-0.067-1.662-0.014-3.328-0.014-4.994
		C-177.708,520.812-177.748,520.811-177.787,520.808z"/>
</g>
</svg>
